<?xml version="1.0" encoding="utf-8"?>
<!-- Generator: Adobe Illustrator 26.2.1, SVG Export Plug-In . SVG Version: 6.00 Build 0)  -->
<svg version="1.1" id="Livello_1" xmlns="http://www.w3.org/2000/svg" xmlns:xlink="http://www.w3.org/1999/xlink" x="0px" y="0px"
	 viewBox="0 0 500 500" style="enable-background:new 0 0 500 500;" xml:space="preserve">
<style type="text/css">
	.st0{fill:#FFFFFF;}
</style>
<g>
	<g>
		<path class="st0" d="M250.1,457.4c-6.9,0-13.9-1.8-20.1-5.4L84.8,368.2c-12.4-7.2-20.1-20.5-20.1-34.7V165.8
			c0-14.3,7.7-27.6,20.1-34.7L230,47.2c12.3-7.1,27.7-7.1,40.1,0L415.4,131c12.4,7.1,20.1,20.5,20.1,34.7v167.7
			c0,14.3-7.7,27.6-20.1,34.7l-145.2,83.9C264,455.7,257,457.4,250.1,457.4z M250.1,55c-4.6,0-9.3,1.2-13.4,3.6L91.4,142.5
			c-8.3,4.8-13.4,13.7-13.4,23.3v167.7c0,9.6,5.2,18.5,13.4,23.3l145.2,83.9c8.3,4.8,18.6,4.8,26.9,0l145.2-83.9
			c8.3-4.8,13.4-13.7,13.4-23.3V165.8c0-9.6-5.2-18.5-13.4-23.3L263.5,58.6C259.4,56.2,254.7,55,250.1,55z"/>
	</g>
	<g>
		<g>
			<path class="st0" d="M328.4,193.7l12.5-28.8c-0.1,0.6-0.3,1.1-0.5,1.7L328.4,193.7z"/>
		</g>
	</g>
	<g>
		<path class="st0" d="M250.1,313.4l-61.2-139.8h16.5l11.6-23.9h-45.2h-1h-10.6c-2.4,0-4.6,0.7-6.4,2l18.1,42v0.1l61.1,139
			c1.9,4.1,17.3,35.9,17.3,35.9s15.4-31.9,17.3-35.9l57.3-130.2l3.8-8.8v-0.1l12-27.1c0.2-0.5,0.4-1,0.5-1.7l0.1-0.3l5.5-12.9
			c-1.9-1.2-4.1-2-6.4-2h-10.6h-1h-45.2l11.6,23.9h16.5L250.1,313.4"/>
	</g>
	<g>
		<path class="st0" d="M352.3,328c0,3-1.4,6.2-3.5,8.4c-2.2,2.2-5.2,3.5-8.4,3.5h-58.1L293,316h35.5v-82.9l23.6-54.7L352.3,328z"/>
	</g>
	<g>
		<path class="st0" d="M147.8,328c0,3,1.4,6.2,3.5,8.4c2.2,2.2,5.2,3.5,8.4,3.5h58.1L207.2,316h-35.5v-82.9l-23.6-54.7L147.8,328z"
			/>
	</g>
	<g>
		<path class="st0" d="M250.1,244.4l-29.3-69.3l29.3-57.3l29.3,57.3L250.1,244.4z M236.3,175.6l13.8,32.7l13.8-32.7l-13.8-27
			L236.3,175.6z"/>
	</g>
</g>
</svg>
