<?xml version="1.0" encoding="UTF-8"?><svg id="a" xmlns="http://www.w3.org/2000/svg" viewBox="0 0 1192 596.59"><defs><style>.b{fill:#fff;}</style></defs><g><path class="b" d="M602,433.85c-7.2,0-14.51-1.88-20.99-5.64l-151.6-87.5c-12.95-7.52-20.99-21.4-20.99-36.23V129.39c0-14.93,8.04-28.82,20.99-36.23L581.01,5.56c12.84-7.41,28.92-7.41,41.87,0l151.71,87.5c12.95,7.41,20.99,21.4,20.99,36.23v175.1c0,14.93-8.04,28.82-20.99,36.23l-151.6,87.6c-6.47,3.86-13.78,5.64-20.99,5.64Zm0-420.15c-4.8,0-9.71,1.25-13.99,3.76l-151.71,87.6c-8.67,5.01-13.99,14.3-13.99,24.33v175.1c0,10.02,5.43,19.32,13.99,24.33l151.6,87.6c8.67,5.01,19.42,5.01,28.09,0l151.6-87.6c8.67-5.01,13.99-14.3,13.99-24.33V129.39c0-10.02-5.43-19.32-13.99-24.33L615.99,17.46c-4.28-2.51-9.19-3.76-13.99-3.76Z"/><path class="b" d="M683.75,158.52l13.05-30.07c-.1,.63-.31,1.15-.52,1.77l-12.53,28.3Z"/><path class="b" d="M602,283.5l-63.9-145.97h17.23l12.11-24.95h-59.31c-2.51,0-4.8,.73-6.68,2.09l18.9,43.85v.1l63.79,145.13c1.98,4.28,18.06,37.48,18.06,37.48,0,0,16.08-33.31,18.06-37.48l59.83-135.94,3.97-9.19v-.1l12.53-28.3c.21-.52,.42-1.04,.52-1.77l.1-.31,5.74-13.47c-1.98-1.25-4.28-2.09-6.68-2.09h-59.31l12.11,24.95h17.23l-64.32,145.97"/><path class="b" d="M708.71,298.74c0,3.13-1.46,6.47-3.65,8.77-2.3,2.3-5.43,3.65-8.77,3.65h-60.66l11.17-24.95h37.07v-86.56l24.64-57.11,.21,156.2Z"/><path class="b" d="M495.19,298.74c0,3.13,1.46,6.47,3.65,8.77,2.3,2.3,5.43,3.65,8.77,3.65h60.66l-11.07-24.95h-37.07v-86.56l-24.64-57.11-.31,156.2Z"/><path class="b" d="M602,211.46l-30.59-72.36,30.59-59.83,30.59,59.83-30.59,72.36Zm-14.41-71.83l14.41,34.14,14.41-34.14-14.41-28.19-14.41,28.19Z"/></g><g><path class="b" d="M84.75,502.28h21.09v94.31h-20.43v-63.27c-10.61,12.57-22,26.46-32.48,38.77l-32.61-38.64v63.13H0v-94.31H20.96l31.96,38.12,31.83-38.12Z"/><path class="b" d="M208.91,522.71h-66.54v16.5h53.57v20.43h-53.57v16.5h66.54v20.43H121.81v-94.31h87.1v20.43Z"/><path class="b" d="M242.17,522.71v53.44h73.74v20.43h-74.66c-10.74,0-19.38-8.64-19.38-19.39v-55.54c0-10.74,8.64-19.38,19.38-19.38h74.66v20.43h-73.74Z"/><path class="b" d="M425.94,502.28v94.31h-20.3v-36.94h-55.67v36.94h-20.3v-94.31h20.3v36.94h55.67v-36.94h20.3Z"/><path class="b" d="M516.05,502.28c10.74,0,19.52,8.64,19.52,19.38v74.92h-20.56v-30.39h-53.44v30.39h-20.3v-74.92c0-10.74,8.64-19.38,19.38-19.38h55.41Zm-1.05,43.49v-23.05h-53.44v23.05h53.44Z"/><path class="b" d="M642.43,502.28h23.45l-54.62,94.31h-16.9l-54.62-94.31h23.58l39.56,68.5,39.56-68.5Z"/><path class="b" d="M761.22,522.71h-66.54v16.5h53.57v20.43h-53.57v16.5h66.54v20.43h-87.1v-94.31h87.1v20.43Z"/><path class="b" d="M868.36,546.16c0,10.61-8.78,19.39-19.52,19.39h-.92c6.68,7.86,13.88,16.24,20.43,24.1v6.94h-20.96l-26.07-31.04-26.98,.13c.26,0,.39,.26,.39,.79,0,0-.26,0-.39-.13v30.26h-20.3v-94.18h74.79c10.74,0,19.52,8.78,19.52,19.39v24.36Zm-74.01-1.05h53.44v-22.4h-53.44v22.4Z"/><path class="b" d="M975.89,530.44h-20.57v-7.73h-53.44v16.5h54.62c10.61,0,19.39,8.64,19.39,19.39v18.6c0,10.74-8.78,19.39-19.39,19.39h-55.54c-10.74,0-19.39-8.64-19.39-19.39v-8.78h20.3v7.73h53.44v-16.5h-54.36c-10.74,0-19.39-8.64-19.39-19.38v-18.6c0-10.74,8.64-19.38,19.39-19.38h55.54c10.61,0,19.39,8.64,19.39,19.38v8.78Z"/><path class="b" d="M1009.94,576.15h53.44v-73.87h20.56v74.92c0,10.74-8.78,19.39-19.38,19.39h-55.54c-10.74,0-19.38-8.64-19.38-19.39v-74.92h20.3v73.87Z"/><path class="b" d="M1192,530.44h-20.57v-7.73h-53.44v16.5h54.62c10.61,0,19.39,8.64,19.39,19.39v18.6c0,10.74-8.78,19.39-19.39,19.39h-55.54c-10.74,0-19.39-8.64-19.39-19.39v-8.78h20.3v7.73h53.44v-16.5h-54.36c-10.74,0-19.39-8.64-19.39-19.38v-18.6c0-10.74,8.64-19.38,19.39-19.38h55.54c10.61,0,19.39,8.64,19.39,19.38v8.78Z"/></g></svg>