<svg xmlns="http://www.w3.org/2000/svg" xmlns:xlink="http://www.w3.org/1999/xlink" width="79.533" height="84.795" viewBox="0 0 79.533 84.795">
  <defs>
    <filter id="Poligono_53" x="0" y="0" width="79.533" height="84.795" filterUnits="userSpaceOnUse">
      <feOffset dy="1" input="SourceAlpha"/>
      <feGaussianBlur stdDeviation="7" result="blur"/>
      <feFlood flood-color="#34db21" flood-opacity="0.369"/>
      <feComposite operator="in" in2="blur"/>
      <feComposite in="SourceGraphic"/>
    </filter>
  </defs>
  <g id="Backtotop" transform="translate(-1827.788 -987.3)">
    <g transform="matrix(1, 0, 0, 1, 1827.79, 987.3)" filter="url(#Poligono_53)">
      <path id="Poligono_53-2" data-name="Poligono 53" d="M28.029,0A7,7,0,0,1,34.11,3.533L40.818,15.3a7,7,0,0,1,0,6.934L34.11,34a7,7,0,0,1-6.081,3.533H14.766A7,7,0,0,1,8.684,34L1.976,22.233a7,7,0,0,1,0-6.934L8.684,3.533A7,7,0,0,1,14.766,0Z" transform="translate(21 62.79) rotate(-90)" fill="#22252e" opacity="0.54"/>
    </g>
    <path id="Tracciato_614" data-name="Tracciato 614" d="M5432.261,1024.5l8.538-8.538,8.539,8.538" transform="translate(-3573.281 6.757)" fill="none" stroke="#fff" stroke-linecap="round" stroke-linejoin="round" stroke-width="2"/>
  </g>
</svg>
