<svg id="Shape" xmlns="http://www.w3.org/2000/svg" xmlns:xlink="http://www.w3.org/1999/xlink" width="330" height="342.928" viewBox="0 0 330 342.928">
  <defs>
    <linearGradient id="linear-gradient" x1="0.5" x2="0.5" y2="1" gradientUnits="objectBoundingBox">
      <stop offset="0" stop-color="#0d1411" stop-opacity="0.302"/>
      <stop offset="1" stop-color="#232a20" stop-opacity="0.529"/>
    </linearGradient>
    <filter id="Sottrazione_1" x="0" y="8.57" width="330" height="334.358" filterUnits="userSpaceOnUse">
      <feOffset dy="3" input="SourceAlpha"/>
      <feGaussianBlur result="blur"/>
      <feFlood flood-color="#0fe" flood-opacity="0.161"/>
      <feComposite operator="in" in2="blur"/>
      <feComposite in="SourceGraphic"/>
    </filter>
  </defs>
  <g transform="matrix(1, 0, 0, 1, 0, 0)" filter="url(#Sottrazione_1)">
    <g id="Sottrazione_1-2" data-name="Sottrazione 1" transform="translate(0 8.57)" fill="url(#linear-gradient)">
      <path d="M200.336,331.358H0V8.137H132.2L146.168,0H330V320.146H219.583l-19.246,11.211Z" stroke="none"/>
      <path d="M 200.0670318603516 330.3576965332031 L 219.3132476806641 319.1463012695312 L 329 319.1463012695312 L 329 1.000014901161194 L 146.4378051757812 1.000014901161194 L 132.4686279296875 9.136514663696289 L 1 9.136514663696289 L 1 330.3576965332031 L 200.0670318603516 330.3576965332031 M 200.3370361328125 331.3576965332031 L 2.842170943040401e-14 331.3576965332031 L 2.842170943040401e-14 8.136514663696289 L 132.1986236572266 8.136514663696289 L 146.1677856445312 1.493326817580964e-05 L 330 1.493326817580964e-05 L 330 320.1463012695312 L 219.5832977294922 320.1463012695312 L 200.3370361328125 331.3576965332031 Z" stroke="none" fill="rgba(255,255,255,0.4)"/>
    </g>
  </g>
  <rect id="Rettangolo_1304" data-name="Rettangolo 1304" width="10.748" height="10.841" fill="#fff"/>
  <line id="Linea_874" data-name="Linea 874" x2="90.873" transform="translate(8.794 8.87)" fill="none" stroke="#fff" stroke-width="1" opacity="0.25"/>
  <rect id="Rettangolo_1305" data-name="Rettangolo 1305" width="5.863" height="5.913" transform="translate(312.681 334.087)" fill="#fff"/>
  <rect id="Rettangolo_1549" data-name="Rettangolo 1549" width="5.863" height="5.913" transform="translate(299.978 334.087)" fill="#fff"/>
  <rect id="Rettangolo_1306" data-name="Rettangolo 1306" width="5.863" height="5.913" transform="translate(323.429 334.087)" fill="#fff"/>
  <path id="Tracciato_1700" data-name="Tracciato 1700" d="M7.578.086,191.1,0V5.056l-191.766,0Z" transform="translate(138.284 8.572)" fill="#fff"/>
</svg>
