<svg id="Shape_small" xmlns="http://www.w3.org/2000/svg" xmlns:xlink="http://www.w3.org/1999/xlink" width="146.724" height="152.969" viewBox="0 0 146.724 152.969">
  <defs>
    <linearGradient id="linear-gradient" x1="0.5" x2="0.5" y2="1" gradientUnits="objectBoundingBox">
      <stop offset="0" stop-color="#f39494" stop-opacity="0.059"/>
      <stop offset="1" stop-color="#232a20" stop-opacity="0.141"/>
    </linearGradient>
    <filter id="Sottrazione_1" x="0" y="3.781" width="146.724" height="149.188" filterUnits="userSpaceOnUse">
      <feOffset dy="3" input="SourceAlpha"/>
      <feGaussianBlur result="blur"/>
      <feFlood flood-color="#0fe" flood-opacity="0.161"/>
      <feComposite operator="in" in2="blur"/>
      <feComposite in="SourceGraphic"/>
    </filter>
  </defs>
  <g transform="matrix(1, 0, 0, 1, 0, 0)" filter="url(#Sottrazione_1)">
    <g id="Sottrazione_1-2" data-name="Sottrazione 1" transform="translate(0 3.78)" fill="url(#linear-gradient)">
      <path d="M89.073,146.187H0V3.59H58.778L64.989,0h81.735V141.241H97.631l-8.557,4.946Z" stroke="none"/>
      <path d="M 88.80547332763672 145.1874847412109 L 97.36276245117188 140.2412414550781 L 145.724365234375 140.2412414550781 L 145.724365234375 1.000002384185791 L 65.25722503662109 1.000002384185791 L 59.04626083374023 4.589642524719238 L 1.00000262260437 4.589642524719238 L 1.00000262260437 145.1874847412109 L 88.80547332763672 145.1874847412109 M 89.07369995117188 146.1874847412109 L 2.617187419673428e-06 146.1874847412109 L 2.617187419673428e-06 3.589642286300659 L 58.77806091308594 3.589642286300659 L 64.98902130126953 2.370605443502427e-06 L 146.724365234375 2.370605443502427e-06 L 146.724365234375 141.2412414550781 L 97.6309814453125 141.2412414550781 L 89.07369995117188 146.1874847412109 Z" stroke="none" fill="rgba(255,255,255,0.4)"/>
    </g>
  </g>
  <rect id="Rettangolo_1304" data-name="Rettangolo 1304" width="4.779" height="4.783" fill="#fff"/>
  <line id="Linea_874" data-name="Linea 874" x2="40.404" transform="translate(3.91 3.913)" fill="none" stroke="#fff" stroke-width="1" opacity="0.25"/>
  <rect id="Rettangolo_1305" data-name="Rettangolo 1305" width="2.607" height="2.609" transform="translate(139.024 147.392)" fill="#fff"/>
  <rect id="Rettangolo_1549" data-name="Rettangolo 1549" width="2.607" height="2.609" transform="translate(133.376 147.392)" fill="#fff"/>
  <rect id="Rettangolo_1306" data-name="Rettangolo 1306" width="2.607" height="2.609" transform="translate(143.803 147.392)" fill="#fff"/>
  <path id="Tracciato_1700" data-name="Tracciato 1700" d="M3,.038,84.6,0V2.23l-85.263,0Z" transform="translate(61.852 3.782)" fill="#fff"/>
</svg>
