<svg xmlns="http://www.w3.org/2000/svg" xmlns:xlink="http://www.w3.org/1999/xlink" width="1920" height="120" viewBox="0 0 1920 120">
  <defs>
    <clipPath id="clip-path">
      <rect id="Rettangolo_2097" data-name="Rettangolo 2097" width="120" height="1920" transform="translate(1920 6328) rotate(90)" fill="none" stroke="#fff" stroke-width="1" opacity="0.36"/>
    </clipPath>
  </defs>
  <g id="divider4" transform="translate(0 -6328)" clip-path="url(#clip-path)">
    <g id="gfx" transform="translate(1978.356 6351.204) rotate(90)" fill="none" opacity="0.36">
      <path d="M197.7,2110.224H81.891L0,2028.2V1779.416l46.6-45.561v-381.58L0,1295.322V153.138l48.121-49.586V33.823L81.891,0H197.7L279.59,82.02V2028.2L197.7,2110.224Z" stroke="none"/>
      <path d="M 197.2858428955078 2109.223876953125 L 278.5897216796875 2027.78955078125 L 278.5897216796875 82.43357849121094 L 197.2858428955078 1.000096321105957 L 82.30572509765625 1.000096321105957 L 49.12236022949219 34.23647308349609 L 49.12236022949219 103.9579925537109 L 48.83999252319336 104.248779296875 L 1.001833081245422 153.5433349609375 L 1.002885103225708 1294.965576171875 L 47.60025405883789 1351.91748046875 L 47.60025405883789 1734.275390625 L 47.29946517944336 1734.569580078125 L 1.001569986343384 1779.836547851562 L 1.001832365989685 2027.78955078125 L 82.30572509765625 2109.223876953125 L 197.2858428955078 2109.223876953125 M 197.7005157470703 2110.223876953125 L 197.7002563476562 2110.223876953125 L 197.7005157470703 2110.223876953125 L 81.89104461669922 2110.223876953125 L 0.001832757261581719 2028.203247070312 L 0.001569599378854036 1779.415649414062 L 46.60025405883789 1733.854614257812 L 46.60025405883789 1352.274291992188 L 0.002885388908907771 1295.322509765625 L 0.001832757261581719 153.1379852294922 L 48.12236022949219 103.5524673461914 L 48.12236022949219 33.82272720336914 L 81.89104461669922 9.63713027886115e-05 L 197.7005157470703 9.63713027886115e-05 L 279.5897216796875 82.01983642578125 L 279.5897216796875 2028.203247070312 L 197.7005157470703 2110.223876953125 Z" stroke="none" fill="#fff"/>
    </g>
  </g>
</svg>
