<svg xmlns="http://www.w3.org/2000/svg" xmlns:xlink="http://www.w3.org/1999/xlink" width="414" height="62" viewBox="0 0 414 62">
  <defs>
    <clipPath id="clip-path">
      <rect id="Rettangolo_2073" data-name="Rettangolo 2073" width="414" height="62" transform="translate(5.5 3862.43)" fill="#fff" stroke="#707070" stroke-width="1"/>
    </clipPath>
  </defs>
  <g id="Divider_mobile_1" transform="translate(-5.5 -3862.43)" clip-path="url(#clip-path)">
    <g id="GFX" transform="translate(696.594 3883.205) rotate(90)" fill="none" opacity="0.36">
      <path d="M83.148,853.478H34.442L0,820.3V719.682l19.6-18.426V546.926L0,523.892V33.173l.64-.616V64.916l19.6-23.034V13.68L34.442,0H83.149L117.59,33.173V820.3L83.149,853.477Z" stroke="none"/>
      <path d="M 82.74552917480469 852.477294921875 L 116.5899429321289 819.8793334960938 L 116.5899429321289 33.59800338745117 L 82.74552917480469 1.000052809715271 L 34.84480285644531 1.000052809715271 L 21.23872184753418 14.10500240325928 L 21.23872184753418 42.24983215332031 L 1.000389218330383 66.03553009033203 L 1.000389218330383 523.5240478515625 L 20.59883308410645 546.5578002929688 L 20.59883308410645 701.6879272460938 L 1.000057339668274 720.114013671875 L 1.000387787818909 819.8793334960938 L 34.84480285644531 852.477294921875 L 82.74552917480469 852.477294921875 M 83.14849853515625 853.4777221679688 L 83.14871978759766 853.477294921875 L 34.44161224365234 853.477294921875 L 0.0003892076201736927 820.3045043945312 L 5.587429404840805e-05 719.6815795898438 L 19.59883308410645 701.2554931640625 L 19.59883308410645 546.9257202148438 L 0.0003892076201736927 523.8919677734375 L 0.0003892076201736927 33.17282867431641 L 0.6401669979095459 32.55649566650391 L 0.6401669979095459 64.91571807861328 L 20.23872184753418 41.88194274902344 L 20.23872184753418 13.67983055114746 L 34.44161224365234 5.278862954583019e-05 L 83.14871978759766 5.278862954583019e-05 L 117.5899429321289 33.17282867431641 L 117.5899429321289 820.3045043945312 L 83.14849853515625 853.4777221679688 Z" stroke="none" fill="#fff"/>
    </g>
  </g>
</svg>
