<svg id="icn_pirate" xmlns="http://www.w3.org/2000/svg" xmlns:xlink="http://www.w3.org/1999/xlink" width="80" height="80" viewBox="0 0 80 80">
  <defs>
    <clipPath id="clip-path">
      <rect id="Rettangolo_1594" data-name="Rettangolo 1594" width="80" height="80" transform="translate(202)" fill="none"/>
    </clipPath>
  </defs>
  <g id="Raggruppa_1923" data-name="Raggruppa 1923" transform="translate(-202)" opacity="0">
    <g id="Raggruppa_1922" data-name="Raggruppa 1922">
      <g id="Raggruppa_1921" data-name="Raggruppa 1921" clip-path="url(#clip-path)">
        <rect id="Rettangolo_1593" data-name="Rettangolo 1593" width="80" height="80" transform="translate(202)" fill="#fff"/>
      </g>
    </g>
  </g>
  <path id="Tracciato_2234" data-name="Tracciato 2234" d="M245.792,58.653l-1.12-3.075s-.281.844-1.125-.281a25.544,25.544,0,0,1-1.828-3.094A25.607,25.607,0,0,1,239.89,55.3c-.843,1.125-1.125.281-1.125.281l-1.119,3.075c.115-.4,1.972-6.757,2.244-7.575.282-.844,1.829-1.109,1.829-1.109s1.547.265,1.828,1.109c.273.818,2.13,7.178,2.245,7.575" transform="translate(-202)" fill="#fff"/>
  <path id="Tracciato_2235" data-name="Tracciato 2235" d="M227.437,38.845a1.2,1.2,0,0,0-1.13.834c-.37,1.284-1.038,4.01-.622,5.808.844,3.654,3.094,6.524,6.751,5.742,2.414-.517,5.073-2.512,6.6-3.809a1.988,1.988,0,0,0,.292-2.79,13.421,13.421,0,0,0-4.081-3.318c-3.972-2.211-6.552-2.508-7.812-2.467" transform="translate(-202)" fill="#fff"/>
  <path id="Tracciato_2236" data-name="Tracciato 2236" d="M256.563,38.845a1.2,1.2,0,0,1,1.13.834c.37,1.284,1.038,4.01.622,5.808-.844,3.654-3.094,6.524-6.751,5.742-2.414-.517-5.073-2.512-6.6-3.809a1.988,1.988,0,0,1-.292-2.79,13.421,13.421,0,0,1,4.081-3.318c3.972-2.211,6.552-2.508,7.812-2.467" transform="translate(-202)" fill="#fff"/>
  <path id="Tracciato_2237" data-name="Tracciato 2237" d="M256.889,55.389c-1.639.361-4.23,2.184-5.937,4.223a7.788,7.788,0,0,0-1.4,2.388c.6-2.838,2.894-5.125,4.653-6.389A11.171,11.171,0,0,1,258.6,53.75l-.263,1.38Z" transform="translate(-202)" fill="#fff"/>
  <path id="Tracciato_2238" data-name="Tracciato 2238" d="M227.111,55.389c1.639.361,4.23,2.184,5.937,4.223a7.788,7.788,0,0,1,1.4,2.388c-.6-2.838-2.894-5.125-4.653-6.389A11.171,11.171,0,0,0,225.4,53.75l.263,1.38Z" transform="translate(-202)" fill="#fff"/>
  <path id="Tracciato_2239" data-name="Tracciato 2239" d="M251,6.017a.633.633,0,0,1,.646.642l-.132,7.431a21.757,21.757,0,0,1,3.694,2.229l2.967-2.8a.628.628,0,0,1,.427-.171.64.64,0,0,1,.61.845l-1.517,4.322c.114.116.229.232.341.354,6.751,7.312,5.626,16.032,4.5,20.533s4.5,9.564,3.657,11.534-7.6,2.812-7.6,2.812l-8.72,15.471s-.563,1.125-1.125,2.25c-1.173,2.345-5.079,2.54-6.349,2.54-.254,0-.4-.007-.4-.007s-.149.007-.4.007c-1.27,0-5.177-.2-6.349-2.54-.562-1.125-1.125-2.25-1.125-2.25L225.4,53.75s-6.751-.844-7.6-2.812S222.59,43.9,221.465,39.4s-2.25-13.221,4.5-20.533c.112-.122.227-.238.341-.354l-1.517-4.322a.64.64,0,0,1,.61-.845.628.628,0,0,1,.427.171l2.967,2.8a21.757,21.757,0,0,1,3.694-2.229l-.132-7.431A.633.633,0,0,1,233,6.017a.616.616,0,0,1,.55.329l3.331,6.172a21.575,21.575,0,0,1,4.987-.681h.259a21.575,21.575,0,0,1,4.987.681l3.331-6.172a.616.616,0,0,1,.55-.329m0-.8h0a1.414,1.414,0,0,0-1.25.742L246.7,11.6a21.916,21.916,0,0,0-4.574-.562h-.259a21.916,21.916,0,0,0-4.574.562l-3.04-5.634A1.418,1.418,0,0,0,233,5.216a1.47,1.47,0,0,0-1.034.428,1.425,1.425,0,0,0-.412,1.019l.124,6.932a22.462,22.462,0,0,0-2.82,1.688l-2.484-2.343a1.437,1.437,0,0,0-.976-.391,1.459,1.459,0,0,0-1.18.609,1.415,1.415,0,0,0-.188,1.292l1.357,3.866-.011.011c-6.508,7.05-6.142,15.459-4.689,21.271.572,2.29-.954,4.942-2.181,7.071-1.089,1.892-1.949,3.386-1.435,4.583.885,2.067,5.793,2.956,7.829,3.24l8.524,15.123,1.107,2.214c1.345,2.692,5.388,2.983,7.064,2.983.2,0,.337-.006.4-.008s.205.008.4.008c1.676,0,5.719-.291,7.064-2.983l1.125-2.25L259.1,54.492c2.036-.284,6.944-1.173,7.829-3.24.513-1.2-.346-2.691-1.435-4.583-1.227-2.129-2.753-4.781-2.181-7.071,1.453-5.812,1.819-14.221-4.689-21.271l-.011-.011,1.354-3.856a1.421,1.421,0,0,0-.185-1.3,1.459,1.459,0,0,0-1.18-.609,1.433,1.433,0,0,0-.969.384l-2.491,2.35A22.645,22.645,0,0,0,252.32,13.6l.123-6.921a1.432,1.432,0,0,0-.412-1.03A1.47,1.47,0,0,0,251,5.216" transform="translate(-202)" fill="#fff"/>
</svg>
