<svg id="icn_building" xmlns="http://www.w3.org/2000/svg" width="80" height="80" viewBox="0 0 80 80">
  <rect id="Rettangolo_1310" data-name="Rettangolo 1310" width="80" height="80" fill="#fff" opacity="0"/>
  <path id="Tracciato_1571" data-name="Tracciato 1571" d="M142.22,170.013l-8.79,8.78a9.437,9.437,0,0,0-4.68-4.68l8.78-8.78a9.5,9.5,0,0,0,4.69,4.68" transform="translate(-101.255 -142.711)" fill="#fff"/>
  <path id="Tracciato_1572" data-name="Tracciato 1572" d="M145.71,205.733v4.25a.132.132,0,0,1-.13.13H113.92a.132.132,0,0,1-.13-.13v-4.25a.135.135,0,0,1,.13-.14h31.66a.135.135,0,0,1,.13.14" transform="translate(-101.255 -142.711)" fill="#fff"/>
  <path id="Tracciato_1573" data-name="Tracciato 1573" d="M128.15,192.034v10.218h-6.62V192.034a9.43,9.43,0,0,0,6.62,0" transform="translate(-101.255 -142.711)" fill="#fff"/>
  <path id="Tracciato_1574" data-name="Tracciato 1574" d="M130.926,182.713a6.086,6.086,0,1,1-6.086-6.086,1.26,1.26,0,0,1,.245.016,6.073,6.073,0,0,1,5.833,5.841,2.2,2.2,0,0,1,.008.229" transform="translate(-101.255 -142.711)" fill="#fff"/>
  <path id="Tracciato_1575" data-name="Tracciato 1575" d="M165.33,178.223v.94a.969.969,0,0,0-.17-.01h-5.23a1.274,1.274,0,0,0-.2.01v-.94a2.3,2.3,0,0,1,2.3-2.29h1.01a2.3,2.3,0,0,1,2.29,2.29" transform="translate(-101.255 -142.711)" fill="#fff"/>
  <path id="Tracciato_1576" data-name="Tracciato 1576" d="M168.76,186.363v10.78l-2.92-1.99v-8.19h-6.6v8.19l-2.92,1.99v-10.78a3.656,3.656,0,0,1,3.61-3.65h5.21a3.67,3.67,0,0,1,3.62,3.65" transform="translate(-101.255 -142.711)" fill="#fff"/>
  <path id="Tracciato_1577" data-name="Tracciato 1577" d="M160.889,173.294a4.276,4.276,0,0,0-3.371,2.45l-7.209-5.851a9.582,9.582,0,0,0,4.27-4.25Z" transform="translate(-101.255 -142.711)" fill="#fff"/>
  <path id="Tracciato_1578" data-name="Tracciato 1578" d="M152.259,161.414a3.229,3.229,0,0,1-.025.411,6.1,6.1,0,0,1-5.676,5.694,3.734,3.734,0,0,1-.428.024,1.278,1.278,0,0,1-.247-.016,6.106,6.106,0,0,1-5.866-5.833,1.506,1.506,0,0,1-.017-.28,6.13,6.13,0,0,1,12.259,0" transform="translate(-101.255 -142.711)" fill="#fff"/>
</svg>
