<svg id="icn_management" xmlns="http://www.w3.org/2000/svg" width="80" height="80" viewBox="0 0 80 80">
  <rect id="Rettangolo_1332" data-name="Rettangolo 1332" width="80" height="80" fill="none" opacity="0"/>
  <path id="Tracciato_1590" data-name="Tracciato 1590" d="M1123.57,64.963a1.487,1.487,0,0,1-.59-1.18v-2.81a1.473,1.473,0,0,1,.59-1.18l2.99-2.26a1.478,1.478,0,0,0,.51-1.64l-.91-2.82a1.481,1.481,0,0,0-1.38-1.02l-3.75-.071a1.479,1.479,0,0,1-1.16-.609l-1.66-2.27a1.473,1.473,0,0,1-.21-1.3l1.08-3.59a1.459,1.459,0,0,0-.54-1.621l-2.4-1.75a1.489,1.489,0,0,0-1.72-.009l-3.07,2.14a1.435,1.435,0,0,1-1.3.19l-2.67-.86a1.5,1.5,0,0,1-.94-.931l-1.23-3.53a1.464,1.464,0,0,0-1.39-1h-2.97a1.486,1.486,0,0,0-1.4,1l-1.22,3.53a1.5,1.5,0,0,1-.94.931l-2.67.86a1.456,1.456,0,0,1-1.31-.19l-3.07-2.14a1.474,1.474,0,0,0-1.71.009l-2.4,1.75a1.48,1.48,0,0,0-.55,1.621l1.09,3.59a1.477,1.477,0,0,1-.22,1.3l-1.65,2.27a1.483,1.483,0,0,1-1.17.609l-3.74.071a1.481,1.481,0,0,0-1.38,1.02l-.92,2.82a1.5,1.5,0,0,0,.52,1.64l2.99,2.26a1.463,1.463,0,0,1,.58,1.18v2.81a1.477,1.477,0,0,1-.58,1.18l-2.99,2.25a1.5,1.5,0,0,0-.52,1.64l.92,2.82a1.481,1.481,0,0,0,1.38,1.02l3.74.07a1.487,1.487,0,0,1,1.17.61l1.65,2.28a1.465,1.465,0,0,1,.22,1.3l-1.09,3.581a1.478,1.478,0,0,0,.55,1.62l2.4,1.75a1.472,1.472,0,0,0,1.71.01l3.07-2.14a1.487,1.487,0,0,1,1.31-.19l2.67.86a1.5,1.5,0,0,1,.94.93l1.22,3.54a1.489,1.489,0,0,0,1.4.99h2.97a1.467,1.467,0,0,0,1.39-.99l1.23-3.54a1.5,1.5,0,0,1,.94-.93l2.67-.86a1.466,1.466,0,0,1,1.3.19l3.07,2.14a1.487,1.487,0,0,0,1.72-.01l2.4-1.75a1.457,1.457,0,0,0,.54-1.62L1118,76.952a1.461,1.461,0,0,1,.21-1.3l1.66-2.28a1.483,1.483,0,0,1,1.16-.61l3.75-.07a1.481,1.481,0,0,0,1.38-1.02l.91-2.82a1.477,1.477,0,0,0-.51-1.64Zm-21.24,8.879a10.919,10.919,0,1,1,10.919-10.919,10.922,10.922,0,0,1-10.919,10.919" transform="translate(-1062.33 -22.374)" fill="#fff"/>
</svg>
