<svg id="icn_human" xmlns="http://www.w3.org/2000/svg" xmlns:xlink="http://www.w3.org/1999/xlink" width="80" height="80" viewBox="0 0 80 80">
  <defs>
    <clipPath id="clip-path">
      <rect id="Rettangolo_2060" data-name="Rettangolo 2060" width="80" height="80" transform="translate(108 0.3)" fill="none"/>
    </clipPath>
  </defs>
  <g id="Raggruppa_2700" data-name="Raggruppa 2700" transform="translate(-5486 -1008.3)">
    <g id="Raggruppa_2693" data-name="Raggruppa 2693" transform="translate(5378 1008)" opacity="0">
      <g id="Raggruppa_2692" data-name="Raggruppa 2692">
        <g id="Raggruppa_2691" data-name="Raggruppa 2691" clip-path="url(#clip-path)">
          <rect id="Rettangolo_2059" data-name="Rettangolo 2059" width="80" height="80" transform="translate(108 0.3)" fill="#fff"/>
        </g>
      </g>
    </g>
    <path id="Tracciato_2933" data-name="Tracciato 2933" d="M148,12.3a24.827,24.827,0,0,1,16.459,7.26c6.93,7.258,5.084,15.8,4.62,20.378a123,123,0,0,1-4.349,21.495,10.034,10.034,0,0,1-3.784,6.18l-4,3.032c-4.1,3.305-7.3,3.655-8.468,3.655a3.638,3.638,0,0,1-.478-.026,3.816,3.816,0,0,1-.478.024c-1.166,0-4.37-.348-8.473-3.653l-3.995-3.032a10.034,10.034,0,0,1-3.784-6.18,123,123,0,0,1-4.349-21.495c-.464-4.582-2.31-13.12,4.62-20.378A24.827,24.827,0,0,1,148,12.3m0-.8a25.4,25.4,0,0,0-17.037,7.506c-6.533,6.841-5.571,14.838-5,19.617.06.5.116.963.159,1.394a116.275,116.275,0,0,0,3.9,19.882q.252.924.469,1.736a10.818,10.818,0,0,0,4.076,6.615l3.992,3.03c4.273,3.443,7.688,3.816,8.957,3.816.217,0,.377-.01.478-.02.1.01.261.02.478.02,1.269,0,4.684-.373,8.975-3.83l3.977-3.017a10.826,10.826,0,0,0,4.076-6.612q.216-.813.469-1.736a116.275,116.275,0,0,0,3.9-19.882c.043-.431.1-.9.159-1.394.575-4.779,1.536-12.776-5-19.617A25.4,25.4,0,0,0,148,11.5" transform="translate(5378 1008)" fill="#fff"/>
    <path id="Tracciato_2934" data-name="Tracciato 2934" d="M166.54,56.772l-.395-.695c.146-.083,3.572-2.025,4.144-2.317.368-.4,2.008-5.1,3.848-11.161.1-.317.224-.877-.012-1.063-.62-.485-3.174.616-4.706,1.516l-.4-.69c.713-.419,4.336-2.456,5.6-1.454.465.366.559,1.013.283,1.924-3.408,11.21-4.042,11.534-4.25,11.64-.557.285-4.077,2.28-4.113,2.3" transform="translate(5378 1008)" fill="#fff"/>
    <path id="Tracciato_2935" data-name="Tracciato 2935" d="M174.8,40.673c-1.052-.834-3.332.073-4.825.824.058-.483.136-.965.188-1.448.042-.423.1-.883.158-1.391.581-4.83,1.552-12.915-5.085-19.861a25.63,25.63,0,0,0-17.253-7.6,25.622,25.622,0,0,0-17.242,7.6c-6.626,6.937-5.66,15.019-5.081,19.86.06.5.116.958.159,1.39.052.482.129.962.186,1.444a9.411,9.411,0,0,0-3.667-1.158,1.814,1.814,0,0,0-1.149.337c-.57.448-.7,1.2-.385,2.247,3.447,11.336,4.092,11.663,4.4,11.82s1.545.849,3.679,2.055c.275,1.063.54,2.13.844,3.183l.463,1.712a11.1,11.1,0,0,0,4.19,6.8l3.984,3.025c4.349,3.5,7.845,3.881,9.145,3.881a3.417,3.417,0,0,0,.45-.02c.105.01.276.02.506.02,1.3,0,4.8-.379,9.158-3.89l3.976-3.018a11.086,11.086,0,0,0,4.185-6.773c.143-.542.3-1.119.467-1.731.3-1.053.569-2.121.843-3.185,2.141-1.209,3.387-1.9,3.688-2.059s.955-.484,4.4-11.82c.316-1.043.186-1.8-.384-2.246m-5.045,2.533c1.782-1.015,3.811-1.723,4.174-1.439a1.21,1.21,0,0,1-.085.745,98.977,98.977,0,0,1-3.757,11.012c-.392.206-1.512.833-2.5,1.39a117.149,117.149,0,0,0,2.168-11.708m-43.8,10.348c-.384-.53-1.884-4.725-3.8-11.044a1.308,1.308,0,0,1-.091-.738.488.488,0,0,1,.281-.054A10.976,10.976,0,0,1,126.23,43.2,116.706,116.706,0,0,0,128.4,54.906c-.975-.549-2.074-1.163-2.44-1.352m38.477,7.825a9.714,9.714,0,0,1-3.67,5.995l-4.006,3.037C152.742,73.65,149.629,74,148.433,74a3.1,3.1,0,0,1-.4-.025h-.072a3.567,3.567,0,0,1-.433.023h-.01c-1.152,0-4.266-.35-8.292-3.593l-3.995-3.03a9.762,9.762,0,0,1-3.679-6.027q-.77-2.595-1.426-5.227a.325.325,0,0,0,.012-.127c-.008-.032-.042-.05-.062-.078a122.926,122.926,0,0,1-2.86-16.009c-.045-.437-.1-.911-.163-1.417-.586-4.882-1.471-12.259,4.7-18.719A24.459,24.459,0,0,1,147.986,12.6a24.467,24.467,0,0,1,16.256,7.167c6.173,6.466,5.286,13.844,4.7,18.727-.06.5-.117.978-.161,1.411a123.28,123.28,0,0,1-2.862,16.012c-.021.028-.054.047-.064.081a.292.292,0,0,0,.015.12q-.66,2.646-1.436,5.262m10.181-18.634c-3.043,10.01-3.88,11.349-4.1,11.459-.384.2-2.092,1.159-3.2,1.784.023-.09.049-.179.071-.269,1.118-.631,2.673-1.505,3.04-1.692a.323.323,0,0,0,.084-.064c.481-.524,2.333-6.07,3.913-11.274.15-.474.254-1.1-.114-1.389-.8-.63-3.311.57-4.454,1.172.01-.082.021-.165.031-.248,1.859-.987,3.833-1.65,4.547-1.08.358.281.418.819.182,1.6" transform="translate(5378 1008)" fill="#fff"/>
    <path id="Tracciato_2936" data-name="Tracciato 2936" d="M129.46,56.772c-.036-.02-3.556-2.015-4.113-2.3-.208-.106-.842-.43-4.25-11.64-.276-.911-.182-1.558.283-1.924,1.269-1,4.893,1.035,5.605,1.454l-.4.69c-1.533-.9-4.088-2-4.706-1.516-.236.186-.109.746-.012,1.063,1.84,6.056,3.48,10.764,3.9,11.195.521.258,3.947,2.2,4.093,2.283Z" transform="translate(5378 1008)" fill="#fff"/>
    <path id="Tracciato_2937" data-name="Tracciato 2937" d="M161.721,43.052a.8.8,0,0,1,.711.327,3.5,3.5,0,0,1,.391,2.274,3.666,3.666,0,0,1-4.247,2.247,13.662,13.662,0,0,1-4.153-1.492c-.537-.283-.614-.753-.183-1.092a8.727,8.727,0,0,1,2.567-1.3,14.525,14.525,0,0,1,4.914-.966" transform="translate(5378 1008)" fill="#fff"/>
    <path id="Tracciato_2938" data-name="Tracciato 2938" d="M134.279,43.052a.8.8,0,0,0-.711.327,3.5,3.5,0,0,0-.391,2.274,3.666,3.666,0,0,0,4.247,2.247,13.662,13.662,0,0,0,4.153-1.492c.537-.283.614-.753.183-1.092a8.727,8.727,0,0,0-2.567-1.3,14.525,14.525,0,0,0-4.914-.966" transform="translate(5378 1008)" fill="#fff"/>
  </g>
</svg>
