<svg id="icn_mech_human_biome" xmlns="http://www.w3.org/2000/svg" width="80" height="80" viewBox="0 0 80 80">
  <g id="Raggruppa_47" data-name="Raggruppa 47" transform="translate(17.623 21.467)">
    <g id="Raggruppa_46" data-name="Raggruppa 46">
      <circle id="Ellisse_2" data-name="Ellisse 2" cx="3.998" cy="3.998" r="3.998" fill="none" stroke="#fff" stroke-miterlimit="10" stroke-width="2.3"/>
      <path id="Tracciato_574" data-name="Tracciato 574" d="M20.7,29.352a24.271,24.271,0,0,0-.889,4.627c-.222,2.518-.226,3.555-.226,3.555" transform="translate(-17.63 -21.355)" fill="none" stroke="#fff" stroke-miterlimit="10" stroke-width="2.3"/>
    </g>
  </g>
  <path id="Tracciato_575" data-name="Tracciato 575" d="M28.444,30.181v7.345a2.382,2.382,0,0,0,1.387,2.157A24.046,24.046,0,0,0,40,41.565,24.047,24.047,0,0,0,50.16,39.683a2.382,2.382,0,0,0,1.387-2.157V22.836a2.382,2.382,0,0,0-1.387-2.158A24.046,24.046,0,0,0,40,18.8a24.046,24.046,0,0,0-10.164,1.882,2.382,2.382,0,0,0-1.387,2.158Z" transform="translate(-0.011 0.116)" fill="none" stroke="#fff" stroke-miterlimit="10" stroke-width="2.3"/>
  <path id="Tracciato_576" data-name="Tracciato 576" d="M18.253,54.272A1.826,1.826,0,0,1,16.5,52.937a41.384,41.384,0,0,1-1.163-6.662,20.353,20.353,0,0,1,.326-7.392,1.815,1.815,0,0,1,1.761-1.345h4.651a1.11,1.11,0,0,1,1.111,1.111V53.161a1.111,1.111,0,0,1-1.111,1.111Z" transform="translate(-0.006 0.109)" fill="none" stroke="#fff" stroke-linecap="round" stroke-linejoin="round" stroke-width="2.3"/>
  <g id="Raggruppa_49" data-name="Raggruppa 49" transform="translate(54.349 21.467)">
    <g id="Raggruppa_48" data-name="Raggruppa 48">
      <circle id="Ellisse_3" data-name="Ellisse 3" cx="3.998" cy="3.998" r="3.998" fill="none" stroke="#fff" stroke-miterlimit="10" stroke-width="2.3"/>
      <path id="Tracciato_577" data-name="Tracciato 577" d="M59.3,29.352a24.271,24.271,0,0,1,.889,4.627c.222,2.518.226,3.555.226,3.555" transform="translate(-54.372 -21.355)" fill="none" stroke="#fff" stroke-miterlimit="10" stroke-width="2.3"/>
    </g>
  </g>
  <path id="Tracciato_578" data-name="Tracciato 578" d="M61.744,54.272A1.826,1.826,0,0,0,63.5,52.937a41.382,41.382,0,0,0,1.163-6.662,20.352,20.352,0,0,0-.326-7.392,1.815,1.815,0,0,0-1.761-1.345H57.926a1.11,1.11,0,0,0-1.111,1.111V53.161a1.111,1.111,0,0,0,1.111,1.111Z" transform="translate(-0.022 0.109)" fill="none" stroke="#fff" stroke-linecap="round" stroke-linejoin="round" stroke-width="2.3"/>
  <path id="Tracciato_579" data-name="Tracciato 579" d="M36.857,58.63l-.416,11.518H29.1a.6.6,0,0,1-.612-.63,41.8,41.8,0,0,1,1.258-7.806c.944-2.891,2.027-3.687,2.721-3.74.486-.038,2.452-.088,3.59-.114A.761.761,0,0,1,36.857,58.63Z" transform="translate(-0.011 0.101)" fill="none" stroke="#fff" stroke-miterlimit="10" stroke-width="2.3"/>
  <path id="Tracciato_580" data-name="Tracciato 580" d="M43.14,58.63l.416,11.518h7.337a.6.6,0,0,0,.612-.63,41.8,41.8,0,0,0-1.258-7.806c-.944-2.891-2.027-3.687-2.721-3.74-.486-.038-2.452-.088-3.59-.114A.761.761,0,0,0,43.14,58.63Z" transform="translate(-0.017 0.101)" fill="none" stroke="#fff" stroke-miterlimit="10" stroke-width="2.3"/>
  <path id="Tracciato_581" data-name="Tracciato 581" d="M29.611,44.13s-.537,7.478-.537,9.218.53,2.274.567,2.274l1.951.021s2.739-11.218,2.517-11.551S29.611,44.13,29.611,44.13Z" transform="translate(-0.011 0.106)" fill="none" stroke="#fff" stroke-linecap="round" stroke-linejoin="round" stroke-width="2.3"/>
  <path id="Tracciato_582" data-name="Tracciato 582" d="M50.387,44.13s.537,7.478.537,9.218-.53,2.274-.567,2.274l-1.951.021s-2.739-11.218-2.517-11.551S50.387,44.13,50.387,44.13Z" transform="translate(-0.018 0.106)" fill="none" stroke="#fff" stroke-linecap="round" stroke-linejoin="round" stroke-width="2.3"/>
  <rect id="Rettangolo_16" data-name="Rettangolo 16" width="80" height="80" fill="#fff" opacity="0"/>
</svg>
