<svg id="icn_mech" xmlns="http://www.w3.org/2000/svg" width="80" height="80" viewBox="0 0 80 80">
  <g id="Raggruppa_47" data-name="Raggruppa 47" transform="translate(15.961 15.769)">
    <g id="Raggruppa_46" data-name="Raggruppa 46" transform="translate(0)">
      <ellipse id="Ellisse_2" data-name="Ellisse 2" cx="4.27" cy="4.27" rx="4.27" ry="4.27" fill="#fff"/>
      <path id="Tracciato_574" data-name="Tracciato 574" d="M20.779,29.352a25.922,25.922,0,0,0-.949,4.942c-.237,2.689-.241,3.8-.241,3.8" transform="translate(-17.497 -20.811)" fill="#fff"/>
    </g>
  </g>
  <path id="Tracciato_575" data-name="Tracciato 575" d="M28.444,30.955V38.8a2.544,2.544,0,0,0,1.482,2.3,25.682,25.682,0,0,0,10.856,2.01A25.683,25.683,0,0,0,51.637,41.1a2.544,2.544,0,0,0,1.482-2.3V23.111a2.545,2.545,0,0,0-1.482-2.3A25.682,25.682,0,0,0,40.781,18.8a25.682,25.682,0,0,0-10.856,2.01,2.545,2.545,0,0,0-1.482,2.3Z" transform="translate(-0.797 -5.758)" fill="#fff"/>
  <path id="Tracciato_576" data-name="Tracciato 576" d="M18.463,55.41a1.951,1.951,0,0,1-1.877-1.425,44.2,44.2,0,0,1-1.242-7.116,21.737,21.737,0,0,1,.348-7.9,1.939,1.939,0,0,1,1.881-1.437h4.968a1.186,1.186,0,0,1,1.186,1.186v15.5a1.186,1.186,0,0,1-1.186,1.186Z" transform="translate(-1.855 -4.347)" fill="#fff"/>
  <g id="Raggruppa_49" data-name="Raggruppa 49" transform="translate(55.468 15.769)">
    <g id="Raggruppa_48" data-name="Raggruppa 48" transform="translate(0)">
      <ellipse id="Ellisse_3" data-name="Ellisse 3" cx="4.27" cy="4.27" rx="4.27" ry="4.27" fill="#fff"/>
      <path id="Tracciato_577" data-name="Tracciato 577" d="M59.3,29.352a25.922,25.922,0,0,1,.949,4.942c.237,2.689.241,3.8.241,3.8" transform="translate(-54.037 -20.811)" fill="#fff"/>
    </g>
  </g>
  <path id="Tracciato_578" data-name="Tracciato 578" d="M62.079,55.41a1.951,1.951,0,0,0,1.877-1.425A44.2,44.2,0,0,0,65.2,46.869a21.737,21.737,0,0,0-.348-7.9,1.939,1.939,0,0,0-1.881-1.437H58a1.186,1.186,0,0,0-1.186,1.186v15.5A1.186,1.186,0,0,0,58,55.41Z" transform="translate(1.281 -4.347)" fill="#fff"/>
  <path id="Tracciato_579" data-name="Tracciato 579" d="M37.426,58.682l-.444,12.3H29.146a.637.637,0,0,1-.653-.673,44.649,44.649,0,0,1,1.343-8.337c1.008-3.088,2.165-3.937,2.906-3.994.519-.041,2.619-.094,3.834-.122A.812.812,0,0,1,37.426,58.682Z" transform="translate(-0.85 -2.748)" fill="#fff"/>
  <path id="Tracciato_580" data-name="Tracciato 580" d="M43.14,58.682l.444,12.3h7.836a.637.637,0,0,0,.653-.673,44.647,44.647,0,0,0-1.343-8.337c-1.008-3.088-2.165-3.937-2.906-3.994-.519-.041-2.619-.094-3.834-.122A.812.812,0,0,0,43.14,58.682Z" transform="translate(0.254 -2.748)" fill="#fff"/>
  <path id="Tracciato_581" data-name="Tracciato 581" d="M29.647,44.142s-.573,7.987-.573,9.846.566,2.429.605,2.429l2.084.022S34.689,44.458,34.452,44.1,29.647,44.142,29.647,44.142Z" transform="translate(-0.816 -3.884)" fill="#fff"/>
  <path id="Tracciato_582" data-name="Tracciato 582" d="M50.694,44.142s.573,7.987.573,9.846-.566,2.429-.605,2.429l-2.084.022S45.653,44.458,45.89,44.1,50.694,44.142,50.694,44.142Z" transform="translate(0.444 -3.884)" fill="#fff"/>
  <rect id="Rettangolo_16" data-name="Rettangolo 16" width="80" height="80" fill="#fff" opacity="0"/>
</svg>
