<svg id="icn_arenas" xmlns="http://www.w3.org/2000/svg" width="80" height="80" viewBox="0 0 80 80">
  <g id="Raggruppa_1661" data-name="Raggruppa 1661">
    <g id="Raggruppa_1660" data-name="Raggruppa 1660" transform="translate(9 15)">
      <path id="Tracciato_1865" data-name="Tracciato 1865" d="M59.5,58a64.884,64.884,0,0,1-19.52,2.88A64.78,64.78,0,0,1,20.49,58a43.456,43.456,0,0,1-4.24-1.55c-.21-.08-.41-.17-.62-.27L16,58h.06c.83,3.83,11.24,6.85,23.94,6.85S63.11,61.83,63.94,58H64l.38-1.83c-.21.1-.42.19-.64.27C62.38,57.02,60.96,57.54,59.5,58Z" transform="translate(-9 -15)" fill="#fff"/>
      <path id="Tracciato_1866" data-name="Tracciato 1866" d="M39.97,51.41a76.256,76.256,0,0,1-9.77-.62,63.234,63.234,0,0,1-16.57-4.3l1.23,5.97c1.21.61,2.48,1.17,3.8,1.68a60,60,0,0,0,21.32,3.69,59.825,59.825,0,0,0,21.35-3.7,41.321,41.321,0,0,0,3.81-1.68l1.24-5.99a63.264,63.264,0,0,1-16.6,4.33A76.885,76.885,0,0,1,39.97,51.41Z" transform="translate(-9 -15)" fill="#fff"/>
      <path id="Tracciato_1867" data-name="Tracciato 1867" d="M10.68,32.18,12.79,42.4c7.57,3.65,17.09,5.63,27.18,5.63,10.13,0,19.67-1.99,27.25-5.66l2.11-10.26a65.071,65.071,0,0,1-29.38,6.63A65.385,65.385,0,0,1,10.68,32.18Z" transform="translate(-9 -15)" fill="#fff"/>
      <path id="Tracciato_1868" data-name="Tracciato 1868" d="M71,24h-.04c-.85-5.02-14.39-9-30.96-9S9.89,18.98,9.04,24H9l.03.13A2.308,2.308,0,0,0,9,24.5a3.3,3.3,0,0,0,.43,1.58l.18.89c.35.22.7.42,1.06.61a47.282,47.282,0,0,0,6.67,3.11A2.294,2.294,0,0,1,17,29.5c0-2.22,3.36-4.21,8.62-5.5A61.865,61.865,0,0,1,40,22.45,61.865,61.865,0,0,1,54.38,24C59.64,25.29,63,27.28,63,29.5a2.325,2.325,0,0,1-.32,1.15,49.09,49.09,0,0,0,6.75-3.16c.01-.01.01-.01.02-.01.32-.19.64-.37.95-.57l.17-.83A3.3,3.3,0,0,0,71,24.5a2.307,2.307,0,0,0-.03-.37Z" transform="translate(-9 -15)" fill="#fff"/>
    </g>
    <rect id="Rettangolo_1394" data-name="Rettangolo 1394" width="80" height="80" fill="#fff" opacity="0"/>
  </g>
</svg>
