<svg id="icn_helmet" xmlns="http://www.w3.org/2000/svg" width="80" height="80" viewBox="0 0 80 80">
  <g id="Raggruppa_1576" data-name="Raggruppa 1576">
    <g id="Livello_2" data-name="Livello 2">
      <g id="Raggruppa_1575" data-name="Raggruppa 1575" transform="translate(15.77 12.151)">
        <path id="Tracciato_1730" data-name="Tracciato 1730" d="M45.043,62.286a19.846,19.846,0,0,1,.121,4.482A15.214,15.214,0,0,1,40,67.849a15.244,15.244,0,0,1-5.166-1.081v0a19.838,19.838,0,0,1,.126-4.478c.287-1.611,2.66-3.319,3.789-3.991h2.5C42.383,58.967,44.755,60.675,45.043,62.286Z" transform="translate(-15.77 -12.151)" fill="#fff"/>
        <path id="Tracciato_1731" data-name="Tracciato 1731" d="M61.5,20.991a27.068,27.068,0,0,0-16.4-8.84L40,20.971l-5.1-8.82A27.068,27.068,0,0,0,18.5,20.991c-3.57,3.95-3.115,12.8-1.6,20.425l.1-12.55,1.91,20.341.005.01c.025.085.055.175.085.255a30.1,30.1,0,0,0,6.06,10.635L22.5,46.972l5.175,16.04c.44.485.885.965,1.325,1.46a11.048,11.048,0,0,0,2.155,1.86,23.616,23.616,0,0,1,.255-4.66c.655-3.61,5.58-6.44,6.14-6.75l.27-.15h4.361l.27.15c.56.31,5.485,3.14,6.14,6.75a23.616,23.616,0,0,1,.255,4.66A11.048,11.048,0,0,0,51,64.472c.44-.5.885-.975,1.325-1.46l0,0L57.5,46.972,54.948,60.1a30.052,30.052,0,0,0,6.01-10.5l.005-.01L63,27.866l.105,13.515C64.618,33.766,65.068,24.936,61.5,20.991Zm-8,27.981c-1.86.8-5.555-.38-8.61-1.66a12.663,12.663,0,0,0-9.781,0c-3.055,1.28-6.75,2.455-8.61,1.66-3.5-1.5-5-11.5-5-14.5s4.115-4.68,7-5.5a44.837,44.837,0,0,1,23,0c2.885.82,7,2.5,7,5.5S57,47.472,53.5,48.972Z" transform="translate(-15.77 -12.151)" fill="#fff"/>
      </g>
      <rect id="Rettangolo_1357" data-name="Rettangolo 1357" width="80" height="80" fill="#fff" opacity="0"/>
    </g>
  </g>
</svg>
