<svg id="icn_galaxy" xmlns="http://www.w3.org/2000/svg" width="80" height="80" viewBox="0 0 80 80">
  <g id="Raggruppa_1185" data-name="Raggruppa 1185">
    <g id="Raggruppa_1184" data-name="Raggruppa 1184" transform="translate(11.688 10.759)">
      <ellipse id="Ellisse_37" data-name="Ellisse 37" cx="6.395" cy="6.453" rx="6.395" ry="6.453" transform="translate(2.144 0.881)" fill="#fff"/>
      <ellipse id="Ellisse_38" data-name="Ellisse 38" cx="3.445" cy="3.482" rx="3.445" ry="3.482" transform="translate(24.834 40.903)" fill="#fff"/>
      <path id="Tracciato_1376" data-name="Tracciato 1376" d="M30.038,14.051a27.945,27.945,0,0,1,10.326-1.966A28.588,28.588,0,1,1,12.085,40.672a28.738,28.738,0,0,1,2.532-11.838" transform="translate(-12.085 -12.085)" fill="none" stroke="#fff" stroke-linecap="round" stroke-linejoin="round" stroke-width="2.535"/>
      <path id="Tracciato_1377" data-name="Tracciato 1377" d="M33.127,54.463a15.63,15.63,0,1,1,14.152,0" transform="translate(-11.922 -11.785)" fill="none" stroke="#fff" stroke-linecap="round" stroke-linejoin="round" stroke-width="2.535"/>
      <ellipse id="Ellisse_39" data-name="Ellisse 39" cx="6.073" cy="6.15" rx="6.073" ry="6.15" transform="translate(22.206 22.437)" fill="#fff" stroke="#fff" stroke-miterlimit="10" stroke-width="2.535"/>
    </g>
    <rect id="Rettangolo_1123" data-name="Rettangolo 1123" width="80" height="80" fill="#fff" opacity="0"/>
  </g>
</svg>
