<svg id="icn_alien" xmlns="http://www.w3.org/2000/svg" xmlns:xlink="http://www.w3.org/1999/xlink" width="80.6" height="80.6" viewBox="0 0 80.6 80.6">
  <defs>
    <clipPath id="clip-path">
      <rect id="Rettangolo_2063" data-name="Rettangolo 2063" width="80.6" height="80.6" transform="translate(216.7 0)" fill="none"/>
    </clipPath>
  </defs>
  <g id="Raggruppa_2702" data-name="Raggruppa 2702" transform="translate(-5594.7 -1008)">
    <g id="Raggruppa_2696" data-name="Raggruppa 2696" transform="translate(5378 1008)" opacity="0">
      <g id="Raggruppa_2695" data-name="Raggruppa 2695">
        <g id="Raggruppa_2694" data-name="Raggruppa 2694" clip-path="url(#clip-path)">
          <rect id="Rettangolo_2061" data-name="Rettangolo 2061" width="80.6" height="80.6" rx="0.3" transform="translate(216.7 0)" fill="#fff"/>
          <rect id="Rettangolo_2062" data-name="Rettangolo 2062" width="80" height="80" transform="translate(217 0.3)" fill="#fff"/>
        </g>
      </g>
    </g>
    <path id="Tracciato_2939" data-name="Tracciato 2939" d="M257.044,75.333c-.086.008-.234.009-.45.009-1.731,0-5.912-.306-7.333-3.148l-1.129-2.26-4.123-8.53c-1.519-1.372-8.528-7.774-9.4-9.8-.509-1.189-.155-2.749.293-4.723.475-2.095,1.065-4.7.5-6.976-1.472-5.884-1.841-14.4,4.759-21.547a22.32,22.32,0,0,1,33.673,0c6.6,7.15,6.233,15.666,4.762,21.551-.569,2.274.019,4.873.491,6.961.453,1.988.806,3.547.3,4.737-.847,1.978-7.347,7.951-9.4,9.8l-4.13,8.536-1.127,2.253c-1.421,2.842-5.6,3.148-7.334,3.148Zm-.024-1.4c.005,0,.145.009.383.009,1.147,0,4.978-.172,6.08-2.374l1.125-2.25,4.218-8.718a.313.313,0,0,1,.069-.092c2.9-2.612,8.561-7.95,9.208-9.459.33-.77.005-2.2-.371-3.86-.508-2.238-1.14-5.023-.488-7.628,1.387-5.548,1.746-13.567-4.43-20.258a20.93,20.93,0,0,0-31.627,0c-6.171,6.685-5.813,14.705-4.426,20.255.652,2.6.02,5.389-.488,7.626-.376,1.658-.7,3.091-.371,3.861.647,1.509,6.305,6.847,9.208,9.459a.313.313,0,0,1,.069.092l4.22,8.721,1.123,2.247c1.1,2.2,4.932,2.374,6.08,2.374.236,0,.378-.008.383-.009h.035Z" transform="translate(5378 1008)" fill="#fff"/>
    <path id="Tracciato_2940" data-name="Tracciato 2940" d="M242.437,39.075a1.2,1.2,0,0,0-1.13.834c-.37,1.284-1.038,4.01-.622,5.808.844,3.654,3.094,6.524,6.751,5.742,2.414-.517,5.073-2.512,6.6-3.809a1.988,1.988,0,0,0,.292-2.79,13.422,13.422,0,0,0-4.081-3.318c-3.972-2.211-6.552-2.508-7.812-2.467" transform="translate(5378 1008)" fill="#fff"/>
    <path id="Tracciato_2941" data-name="Tracciato 2941" d="M271.563,39.075a1.2,1.2,0,0,1,1.13.834c.37,1.284,1.038,4.01.622,5.808-.844,3.654-3.094,6.524-6.751,5.742-2.414-.517-5.073-2.512-6.6-3.809a1.988,1.988,0,0,1-.292-2.79,13.422,13.422,0,0,1,4.081-3.318c3.972-2.211,6.552-2.508,7.812-2.467" transform="translate(5378 1008)" fill="#fff"/>
  </g>
</svg>
