<svg id="icn_discord" xmlns="http://www.w3.org/2000/svg" width="80" height="80" viewBox="0 0 80 80">
  <g id="Rettangolo_2042" data-name="Rettangolo 2042" fill="#fff" stroke="#707070" stroke-width="1" opacity="0">
    <rect width="80" height="80" stroke="none"/>
    <rect x="0.5" y="0.5" width="79" height="79" fill="none"/>
  </g>
  <path id="Discord" d="M41.518,3.178A39.916,39.916,0,0,0,31.406,0a29.621,29.621,0,0,0-1.3,2.689,37.121,37.121,0,0,0-11.206,0A28.75,28.75,0,0,0,17.594,0,39.786,39.786,0,0,0,7.475,3.185a42.406,42.406,0,0,0-7.267,28.4,40.428,40.428,0,0,0,12.4,6.355,30.854,30.854,0,0,0,2.656-4.375,26.108,26.108,0,0,1-4.183-2.036c.351-.26.694-.531,1.025-.811a28.58,28.58,0,0,0,24.8,0c.335.28.679.551,1.025.811a26.042,26.042,0,0,1-4.19,2.04,30.712,30.712,0,0,0,2.656,4.374A40.345,40.345,0,0,0,48.8,31.581a42.364,42.364,0,0,0-7.286-28.4M16.364,25.864c-2.421,0-4.406-2.26-4.406-5.012s1.943-5.016,4.406-5.016a4.7,4.7,0,0,1,4.406,5.016c0,2.752-1.943,5.012-4.406,5.012m16.283,0c-2.421,0-4.406-2.26-4.406-5.012s1.943-5.016,4.406-5.016a4.7,4.7,0,0,1,4.406,5.016c0,2.752-1.943,5.012-4.406,5.012" transform="translate(15.668 20.99)" fill="#fff"/>
</svg>
