<svg xmlns="http://www.w3.org/2000/svg" width="60" height="60" viewBox="0 0 60 60">
  <path d="M35.684,44.322H2.379A2.355,2.355,0,0,1,0,42V2.323A2.354,2.354,0,0,1,2.379,0H22.2V13.16a2.353,2.353,0,0,0,2.378,2.322h13.48V42A2.353,2.353,0,0,1,35.684,44.322ZM11.461,19.759a.97.97,0,0,0-.542.163l1.52,3.447v.009L17.579,34.8c.158.33,1.441,2.931,1.451,2.952.025-.047,1.31-2.653,1.451-2.952L25.3,24.1l.325-.725V23.37l1-2.227c.006-.015.011-.03.015-.046s0-.016.007-.023,0-.013.007-.019l0-.006a.326.326,0,0,0,.013-.044l.009-.024.462-1.058a.976.976,0,0,0-.54-.163H21.817l1.307,1.963H24.18L19.031,33.2,13.881,21.722h1.056l1.307-1.963H11.461ZM22.64,33.413h0l-.9,1.963h4.886a1.021,1.021,0,0,0,.709-.29,1,1,0,0,0,.3-.691l-.026-12.277-1.984,4.489v6.8ZM10.455,22.12h0L10.43,34.4a1,1,0,0,0,.3.691,1.02,1.02,0,0,0,.708.29h4.887l-.9-1.963H12.439v-6.8Zm8.575-4.982h0l-2.466,4.7,2.466,5.691L21.5,21.84l-2.466-4.7Zm0,7.431v0l-1.161-2.68,1.162-2.218,1.164,2.218-1.163,2.68ZM38.061,12.385H25.374V0h.605a2.393,2.393,0,0,1,1.685.677l9.7,9.483a2.3,2.3,0,0,1,.693,1.636v.589Z" transform="translate(10, 10)" fill="#fff"/>
</svg>
