<svg id="icn_traps" xmlns="http://www.w3.org/2000/svg" width="80" height="80" viewBox="0 0 80 80">
  <g id="Raggruppa_1745" data-name="Raggruppa 1745">
    <rect id="Rettangolo_1432" data-name="Rettangolo 1432" width="80" height="80" fill="#fff" opacity="0"/>
    <path id="Tracciato_2008" data-name="Tracciato 2008" d="M65.378,34.4l-.738-8.851-2.784,4.641-.031-.03L59.04,19.946,53.956,25.03,53.9,25,50.08,15.466l-4.94,6.917L40,13.48l-5.14,8.9-4.94-6.917L26.105,25l-.061.027L20.96,19.946,18.175,30.157l-.031.03L15.36,25.546,14.622,34.4,12,30.026v13.44c0,11.734,12.561,21.28,28,21.28S68,55.2,68,43.466V30.026ZM46.241,39.546A7.991,7.991,0,0,0,40,36.886a7.991,7.991,0,0,0-6.241,2.66H14.792C17.244,30.922,27.614,24.426,40,24.426s22.756,6.5,25.208,15.12ZM62.4,52.851V51.306l-2.589,4.315a23.233,23.233,0,0,1-2.192,1.717L56.8,52.426l-3.716,7.432q-.592.259-1.207.5L48.96,53.546l-3.812,8.578c-.105.016-.212.027-.318.042L40,53.8l-4.83,8.366c-.106-.015-.213-.026-.318-.042L31.04,53.546l-2.917,6.807q-.614-.236-1.207-.5L23.2,52.426l-.819,4.912a23.233,23.233,0,0,1-2.192-1.717L17.6,51.306v1.545a15.643,15.643,0,0,1-3.254-7.7H33.759A7.987,7.987,0,0,0,40,47.806a7.987,7.987,0,0,0,6.241-2.66H65.654A15.643,15.643,0,0,1,62.4,52.851Z" fill="#fff"/>
  </g>
</svg>
