<svg id="icn_makemoves" xmlns="http://www.w3.org/2000/svg" xmlns:xlink="http://www.w3.org/1999/xlink" width="80" height="80" viewBox="0 0 80 80">
  <defs>
    <clipPath id="clip-path">
      <rect id="Rettangolo_2001" data-name="Rettangolo 2001" width="80" height="80" fill="none"/>
    </clipPath>
  </defs>
  <g id="Raggruppa_2618" data-name="Raggruppa 2618" clip-path="url(#clip-path)">
    <g id="Raggruppa_2615" data-name="Raggruppa 2615">
      <g id="Raggruppa_2614" data-name="Raggruppa 2614" clip-path="url(#clip-path)">
        <g id="Raggruppa_2613" data-name="Raggruppa 2613" opacity="0">
          <g id="Raggruppa_2612" data-name="Raggruppa 2612">
            <g id="Raggruppa_2611" data-name="Raggruppa 2611" clip-path="url(#clip-path)">
              <rect id="Rettangolo_1997" data-name="Rettangolo 1997" width="80" height="80" fill="#fff"/>
            </g>
          </g>
        </g>
      </g>
    </g>
    <path id="Tracciato_2836" data-name="Tracciato 2836" d="M31.7,28.319l6.579,11.4L31.7,51.109H18.544l-6.579-11.4,6.579-11.4Zm1.155-2H17.39l-7.734,13.4,7.734,13.4H32.857l7.734-13.4Z" transform="translate(0)" fill="#fff"/>
    <g id="Raggruppa_2617" data-name="Raggruppa 2617">
      <g id="Raggruppa_2616" data-name="Raggruppa 2616" clip-path="url(#clip-path)">
        <path id="Tracciato_2837" data-name="Tracciato 2837" d="M54.971,45.139a20.705,20.705,0,0,1-5.76,8.99,1,1,0,0,0-.14,1.41.994.994,0,0,0,1.41.14,21.992,21.992,0,0,0,6.58-10.54,15.739,15.739,0,0,0,.43-2,19.343,19.343,0,0,0,.2-4.74v-.01a19.923,19.923,0,0,0-.24-2,17.236,17.236,0,0,0-4.77-9.88l2.11-2.15.82-.84-1.72.02-5.62.05v7.42l.92-.94,2.1-2.14a15.258,15.258,0,0,1,4.14,8.46c.11.63.2,1.29.26,2,0,.05.01.11.01.16a17.182,17.182,0,0,1-.25,4.59,19.5,19.5,0,0,1-.48,2" transform="translate(0 0)" fill="#fff"/>
        <path id="Tracciato_2838" data-name="Tracciato 2838" d="M67.544,24.763l-7,12.12-.83-2.56,5.52-9.56-6.58-11.4H45.494l-6.57,11.4,6.57,11.39h6.585a18.375,18.375,0,0,1,.3,2H44.344l-7.73-13.39,7.73-13.4h15.47Z" transform="translate(0 0)" fill="#fff"/>
        <path id="Tracciato_2839" data-name="Tracciato 2839" d="M67.544,56.3l-7.73,13.39H44.344L36.614,56.3l7.73-13.4h8.04a17.057,17.057,0,0,1-5.21,9.25,4,4,0,0,0,5.07,6.19,25.058,25.058,0,0,0,8.1-14.53Z" fill="#fff"/>
      </g>
    </g>
  </g>
</svg>
