<svg id="icn_collecting" xmlns="http://www.w3.org/2000/svg" width="80" height="80" viewBox="0 0 80 80">
  <rect id="Rettangolo_1306" data-name="Rettangolo 1306" width="80" height="80" fill="none"/>
  <path id="Tracciato_1695" data-name="Tracciato 1695" d="M61.5,30.625a27.065,27.065,0,0,0-16.4-8.841L40,30.6l-5.095-8.821A27.069,27.069,0,0,0,18.5,30.625c-3.57,3.95-3.115,12.8-1.6,20.425L17,38.5l1.91,20.34.005.01c.025.085.055.175.085.255A30.1,30.1,0,0,0,25.063,69.74L22.5,56.6l5.175,16.04c.44.485.885.965,1.325,1.46a11.048,11.048,0,0,0,2.155,1.86,23.616,23.616,0,0,1,.255-4.66c.655-3.61,5.58-6.44,6.14-6.75l.27-.15h4.36l.27.15c.56.31,5.485,3.14,6.14,6.75a23.615,23.615,0,0,1,.255,4.66A11.048,11.048,0,0,0,51,74.105c.44-.5.885-.975,1.325-1.46l0-.005L57.5,56.6,54.948,69.73a30.052,30.052,0,0,0,6.01-10.5l.005-.01L63,37.5l.105,13.515c1.51-7.615,1.96-16.445-1.605-20.39m-8,27.98c-1.86.8-5.555-.38-8.61-1.66a12.66,12.66,0,0,0-9.78,0c-3.055,1.28-6.75,2.455-8.61,1.66-3.5-1.5-5-11.5-5-14.5s4.116-4.68,7-5.5a44.833,44.833,0,0,1,23,0c2.885.82,7,2.5,7,5.5s-1.5,13-5,14.5" transform="translate(0 -9.633)" fill="#fff"/>
  <path id="Tracciato_1696" data-name="Tracciato 1696" d="M45.043,71.919a19.854,19.854,0,0,1,.121,4.483A15.219,15.219,0,0,1,40,77.482a15.253,15.253,0,0,1-5.166-1.08v0a19.842,19.842,0,0,1,.125-4.479c.288-1.61,2.66-3.319,3.79-3.991h2.5c1.129.672,3.5,2.381,3.789,3.991" transform="translate(0 -9.633)" fill="#fff"/>
</svg>
